General 
Complete name : Tanner.Hall.2009.LIMITED.BDRip.XviD-CODEC
Format : AVI 
Format/Info : Audio Video Interleave 
File size : 703 MiB 
Duration : 1h 35mn 
Overall bit rate : 1 032 Kbps 
Writing application : Nandub v1.0rc2 
Writing library : VirtualDub build 32842/release 

Video 
ID : 0 
Format : MPEG-4 Visual 
Format profile : Advanced Simple@L5 
Format settings, BVOP : 1 
Format settings, QPel : No 
Format settings, GMC : No warppoints 
Format settings, Matrix : Default (H.263) 
Muxing mode : Packed bitstream 
Codec ID : DX50 
Codec ID/Hint : DivX 5 
Duration : 1h 35mn 
Bit rate : 895 Kbps 
Width : 640 pixels 
Height : 356 pixels 
Display aspect ratio : 16:9 
Frame rate : 23.976 fps 
Color space : YUV 
Chroma subsampling : 4:2:0 
Bit depth : 8 bits 
Scan type : Progressive 
Compression mode : Lossy 
Bits/(Pixel*Frame) : 0.164 
Stream size : 610 MiB (87%) 
Writing library : XviD 64 

Audio 
ID : 1 
Format : MPEG Audio 
Format version : Version 1 
Format profile : Layer 3 
Mode : Joint stereo 
Mode extension : MS Stereo 
Codec ID : 55 
Codec ID/Hint : MP3 
Duration : 1h 35mn 
Bit rate mode : Constant 
Bit rate : 128 Kbps 
Channel(s) : 2 channels 
Sampling rate : 48.0 KHz 
Compression mode : Lossy 
Stream size : 87.2 MiB (12%) 
Alignment : Split accross interleaves 
Interleave, duration : 42 ms (1.00 video frame) 
Interleave, preload duration : 500 ms 

